<svg class="railroad" viewBox="0 0 1071 141" xmlns="http://www.w3.org/2000/svg" xmlns:xlink="http://www.w3.org/1999/xlink">
<style type="text/css">

svg.railroad {
  background-color: rgba(238, 238, 238, .91);
  background-size: 15px 15px;
  background-image: linear-gradient(to right, rgba(25, 25, 225, .65) 1px, transparent 1px),
                    linear-gradient(to bottom, rgba(25, 25, 225, .65) 1px, transparent 1px);
}

svg.railroad path {
  stroke-width: 3px;
  stroke: black;
  fill: transparent;
}

svg.railroad .debug {
  stroke-width: 1px;
  stroke: red;
}

svg.railroad text {
  font: 14px monospace;
  text-anchor: middle;
}

svg.railroad .nonterminal text {
  font-weight: bold;
}

svg.railroad text.comment {
  font: italic 12px monospace;
}

svg.railroad rect {
  stroke-width: 3px;
  stroke: black;
  fill:rgba(0, 0, 90, 0%);
}

svg.railroad .terminal rect {
  fill: aquamarine;  
}

svg.railroad .nonterminal rect {
  fill: orange;  
}

svg.railroad g.labeledbox &gt; rect {
  border-radius: 25px;
  border: 2px solid #73AD21;
  stroke-width: 1.5px;
  stroke: grey;
  stroke-dasharray: 5px;
  fill:rgba(150, 150, 150, 25%);
}

</style>
<g class="sequence">
<path d=" M 10 21 a 5 5 0 0 1 5 -5 a 5 5 0 0 1 5 5 a 5 5 0 0 1 -5 5 a 5 5 0 0 1 -5 -5 m 10 0 h 5"/>
<g class="choice">
<path d=" M 35 21 h 24 m 654 0 h 318 m -156 0 l -5 -5 m 0 10 l 5 -5 m 156 0"/>
<g class="sequence">
<g class="nonterminal">
<rect height="22" width="100" x="59" y="10"/>
<text x="109" y="26">
DocComment</text>
</g>
<g class="terminal">
<rect height="22" rx="10" ry="10" width="108" x="169" y="10"/>
<text x="223" y="26">
&quot;intrinsic&quot;</text>
</g>
<g class="terminal">
<rect height="22" rx="10" ry="10" width="52" x="287" y="10"/>
<text x="313" y="26">
&quot;fn&quot;</text>
</g>
<g class="nonterminal">
<rect height="22" width="60" x="349" y="10"/>
<text x="379" y="26">
Ident</text>
</g>
<g class="terminal">
<rect height="22" rx="10" ry="10" width="44" x="419" y="10"/>
<text x="441" y="26">
&quot;(&quot;</text>
</g>
<g class="terminal">
<rect height="22" rx="10" ry="10" width="44" x="473" y="10"/>
<text x="495" y="26">
&quot;)&quot;</text>
</g>
<g class="terminal">
<rect height="22" rx="10" ry="10" width="52" x="527" y="10"/>
<text x="553" y="26">
&quot;as&quot;</text>
</g>
<g class="nonterminal">
<rect height="22" width="124" x="589" y="10"/>
<text x="651" y="26">
ModularTarget</text>
</g>
<path d=" M 159 21 h 10"/>
<path d=" M 277 21 h 10"/>
<path d=" M 339 21 h 10"/>
<path d=" M 409 21 h 10"/>
<path d=" M 463 21 h 10"/>
<path d=" M 517 21 h 10"/>
<path d=" M 579 21 h 10"/>
</g>
<path d=" M 35 21 a 12 12 0 0 1 12 12 v 9 m 972 0 v -9 a 12 12 0 0 1 12 -12"/>
<path d=" M 47 42 v 33 m 972 0 v -33"/>
<path d=" M 47 75 v 33 m 972 0 v -33"/>
<path d=" M 47 42 v 0 a 12 12 0 0 0 12 12 m 732 0 h 216 m -105 0 l -5 -5 m 0 10 l 5 -5 m 105 0 a 12 12 0 0 0 12 -12 v 0"/>
<g class="sequence">
<g class="nonterminal">
<rect height="22" width="100" x="59" y="43"/>
<text x="109" y="59">
DocComment</text>
</g>
<g class="terminal">
<rect height="22" rx="10" ry="10" width="108" x="169" y="43"/>
<text x="223" y="59">
&quot;intrinsic&quot;</text>
</g>
<g class="terminal">
<rect height="22" rx="10" ry="10" width="52" x="287" y="43"/>
<text x="313" y="59">
&quot;fn&quot;</text>
</g>
<g class="nonterminal">
<rect height="22" width="60" x="349" y="43"/>
<text x="379" y="59">
Ident</text>
</g>
<g class="terminal">
<rect height="22" rx="10" ry="10" width="44" x="419" y="43"/>
<text x="441" y="59">
&quot;(&quot;</text>
</g>
<g class="nonterminal">
<rect height="22" width="68" x="473" y="43"/>
<text x="507" y="59">
FnArgs</text>
</g>
<g class="terminal">
<rect height="22" rx="10" ry="10" width="44" x="551" y="43"/>
<text x="573" y="59">
&quot;)&quot;</text>
</g>
<g class="terminal">
<rect height="22" rx="10" ry="10" width="52" x="605" y="43"/>
<text x="631" y="59">
&quot;as&quot;</text>
</g>
<g class="nonterminal">
<rect height="22" width="124" x="667" y="43"/>
<text x="729" y="59">
ModularTarget</text>
</g>
<path d=" M 159 54 h 10"/>
<path d=" M 277 54 h 10"/>
<path d=" M 339 54 h 10"/>
<path d=" M 409 54 h 10"/>
<path d=" M 463 54 h 10"/>
<path d=" M 541 54 h 10"/>
<path d=" M 595 54 h 10"/>
<path d=" M 657 54 h 10"/>
</g>
<path d=" M 47 75 v 0 a 12 12 0 0 0 12 12 m 948 0 h 0 a 12 12 0 0 0 12 -12 v 0"/>
<g class="sequence">
<g class="nonterminal">
<rect height="22" width="100" x="59" y="76"/>
<text x="109" y="92">
DocComment</text>
</g>
<g class="terminal">
<rect height="22" rx="10" ry="10" width="108" x="169" y="76"/>
<text x="223" y="92">
&quot;intrinsic&quot;</text>
</g>
<g class="terminal">
<rect height="22" rx="10" ry="10" width="52" x="287" y="76"/>
<text x="313" y="92">
&quot;fn&quot;</text>
</g>
<g class="nonterminal">
<rect height="22" width="60" x="349" y="76"/>
<text x="379" y="92">
Ident</text>
</g>
<g class="terminal">
<rect height="22" rx="10" ry="10" width="44" x="419" y="76"/>
<text x="441" y="92">
&quot;(&quot;</text>
</g>
<g class="nonterminal">
<rect height="22" width="68" x="473" y="76"/>
<text x="507" y="92">
FnArgs</text>
</g>
<g class="terminal">
<rect height="22" rx="10" ry="10" width="44" x="551" y="76"/>
<text x="573" y="92">
&quot;,&quot;</text>
</g>
<g class="terminal">
<rect height="22" rx="10" ry="10" width="44" x="605" y="76"/>
<text x="627" y="92">
&quot;.&quot;</text>
</g>
<g class="terminal">
<rect height="22" rx="10" ry="10" width="44" x="659" y="76"/>
<text x="681" y="92">
&quot;.&quot;</text>
</g>
<g class="terminal">
<rect height="22" rx="10" ry="10" width="44" x="713" y="76"/>
<text x="735" y="92">
&quot;.&quot;</text>
</g>
<g class="terminal">
<rect height="22" rx="10" ry="10" width="44" x="767" y="76"/>
<text x="789" y="92">
&quot;)&quot;</text>
</g>
<g class="terminal">
<rect height="22" rx="10" ry="10" width="52" x="821" y="76"/>
<text x="847" y="92">
&quot;as&quot;</text>
</g>
<g class="nonterminal">
<rect height="22" width="124" x="883" y="76"/>
<text x="945" y="92">
ModularTarget</text>
</g>
<path d=" M 159 87 h 10"/>
<path d=" M 277 87 h 10"/>
<path d=" M 339 87 h 10"/>
<path d=" M 409 87 h 10"/>
<path d=" M 463 87 h 10"/>
<path d=" M 541 87 h 10"/>
<path d=" M 595 87 h 10"/>
<path d=" M 649 87 h 10"/>
<path d=" M 703 87 h 10"/>
<path d=" M 757 87 h 10"/>
<path d=" M 811 87 h 10"/>
<path d=" M 873 87 h 10"/>
</g>
<path d=" M 47 108 v 0 a 12 12 0 0 0 12 12 m 816 0 h 132 m -63 0 l -5 -5 m 0 10 l 5 -5 m 63 0 a 12 12 0 0 0 12 -12 v 0"/>
<g class="sequence">
<g class="nonterminal">
<rect height="22" width="100" x="59" y="109"/>
<text x="109" y="125">
DocComment</text>
</g>
<g class="terminal">
<rect height="22" rx="10" ry="10" width="108" x="169" y="109"/>
<text x="223" y="125">
&quot;intrinsic&quot;</text>
</g>
<g class="terminal">
<rect height="22" rx="10" ry="10" width="52" x="287" y="109"/>
<text x="313" y="125">
&quot;fn&quot;</text>
</g>
<g class="nonterminal">
<rect height="22" width="60" x="349" y="109"/>
<text x="379" y="125">
Ident</text>
</g>
<g class="terminal">
<rect height="22" rx="10" ry="10" width="44" x="419" y="109"/>
<text x="441" y="125">
&quot;(&quot;</text>
</g>
<g class="terminal">
<rect height="22" rx="10" ry="10" width="44" x="473" y="109"/>
<text x="495" y="125">
&quot;.&quot;</text>
</g>
<g class="terminal">
<rect height="22" rx="10" ry="10" width="44" x="527" y="109"/>
<text x="549" y="125">
&quot;.&quot;</text>
</g>
<g class="terminal">
<rect height="22" rx="10" ry="10" width="44" x="581" y="109"/>
<text x="603" y="125">
&quot;.&quot;</text>
</g>
<g class="terminal">
<rect height="22" rx="10" ry="10" width="44" x="635" y="109"/>
<text x="657" y="125">
&quot;)&quot;</text>
</g>
<g class="terminal">
<rect height="22" rx="10" ry="10" width="52" x="689" y="109"/>
<text x="715" y="125">
&quot;as&quot;</text>
</g>
<g class="nonterminal">
<rect height="22" width="124" x="751" y="109"/>
<text x="813" y="125">
ModularTarget</text>
</g>
<path d=" M 159 120 h 10"/>
<path d=" M 277 120 h 10"/>
<path d=" M 339 120 h 10"/>
<path d=" M 409 120 h 10"/>
<path d=" M 463 120 h 10"/>
<path d=" M 517 120 h 10"/>
<path d=" M 571 120 h 10"/>
<path d=" M 625 120 h 10"/>
<path d=" M 679 120 h 10"/>
<path d=" M 741 120 h 10"/>
</g>
</g>
<path d=" M 1041 21 h 20 m -10 -10 v 20 m 10 -20 v 20"/>
<path d=" M 25 21 h 10"/>
<path d=" M 1031 21 h 10"/>
</g>
</svg>
