<svg class="railroad" viewBox="0 0 555 100" xmlns="http://www.w3.org/2000/svg" xmlns:xlink="http://www.w3.org/1999/xlink">
<style type="text/css">

svg.railroad {
  background-color: rgba(238, 238, 238, .91);
  background-size: 15px 15px;
  background-image: linear-gradient(to right, rgba(25, 25, 225, .65) 1px, transparent 1px),
                    linear-gradient(to bottom, rgba(25, 25, 225, .65) 1px, transparent 1px);
}

svg.railroad path {
  stroke-width: 3px;
  stroke: black;
  fill: transparent;
}

svg.railroad .debug {
  stroke-width: 1px;
  stroke: red;
}

svg.railroad text {
  font: 14px monospace;
  text-anchor: middle;
}

svg.railroad .nonterminal text {
  font-weight: bold;
}

svg.railroad text.comment {
  font: italic 12px monospace;
}

svg.railroad rect {
  stroke-width: 3px;
  stroke: black;
  fill:rgba(0, 0, 90, 0%);
}

svg.railroad .terminal rect {
  fill: aquamarine;  
}

svg.railroad .nonterminal rect {
  fill: orange;  
}

svg.railroad g.labeledbox &gt; rect {
  border-radius: 25px;
  border: 2px solid #73AD21;
  stroke-width: 1.5px;
  stroke: grey;
  stroke-dasharray: 5px;
  fill:rgba(150, 150, 150, 25%);
}

</style>
<g class="sequence">
<path d=" M 10 34 a 5 5 0 0 1 5 -5 a 5 5 0 0 1 5 5 a 5 5 0 0 1 -5 5 a 5 5 0 0 1 -5 -5 m 10 0 h 5"/>
<g class="choice">
<path d=" M 35 34 h 24 m 432 0 h 24"/>
<g class="sequence">
<g class="nonterminal">
<rect height="22" width="148" x="59" y="23"/>
<text x="133" y="39">
ConfigDirectives</text>
</g>
<g class="nonterminal">
<rect height="22" width="60" x="217" y="23"/>
<text x="247" y="39">
Stmts</text>
</g>
<g class="optional">
<path d=" M 287 34 h 24 m -24 0 a 12 12 0 0 0 12 -12 v 0 a 12 12 0 0 1 12 -12 h 156 m -75 0 l -5 -5 m 0 10 l 5 -5 m 75 0 a 12 12 0 0 1 12 12 v 0 a 12 12 0 0 0 12 12 h -24"/>
<g class="sequence">
<g class="terminal">
<rect height="22" rx="10" ry="10" width="156" x="311" y="23"/>
<text x="389" y="39">
&quot;&lt;end-of-stream&gt;&quot;</text>
</g>
</g>
</g>
<path d=" M 207 34 h 10"/>
<path d=" M 277 34 h 10"/>
</g>
<path d=" M 35 34 a 12 12 0 0 1 12 12 v 9 m 456 0 v -9 a 12 12 0 0 1 12 -12"/>
<path d=" M 47 55 v 12 a 12 12 0 0 0 12 12 m 274 0 h 158 m -76 0 l -5 -5 m 0 10 l 5 -5 m 76 0 a 12 12 0 0 0 12 -12 v -12"/>
<g class="sequence">
<g class="nonterminal">
<rect height="22" width="60" x="59" y="68"/>
<text x="89" y="84">
Stmts</text>
</g>
<g class="optional">
<path d=" M 129 79 h 24 m -24 0 a 12 12 0 0 0 12 -12 v 0 a 12 12 0 0 1 12 -12 h 156 m -75 0 l -5 -5 m 0 10 l 5 -5 m 75 0 a 12 12 0 0 1 12 12 v 0 a 12 12 0 0 0 12 12 h -24"/>
<g class="sequence">
<g class="terminal">
<rect height="22" rx="10" ry="10" width="156" x="153" y="68"/>
<text x="231" y="84">
&quot;&lt;end-of-stream&gt;&quot;</text>
</g>
</g>
</g>
<path d=" M 119 79 h 10"/>
</g>
</g>
<path d=" M 525 34 h 20 m -10 -10 v 20 m 10 -20 v 20"/>
<path d=" M 25 34 h 10"/>
<path d=" M 515 34 h 10"/>
</g>
</svg>
