<svg class="railroad" viewBox="0 0 749 108" xmlns="http://www.w3.org/2000/svg" xmlns:xlink="http://www.w3.org/1999/xlink">
<style type="text/css">

svg.railroad {
  background-color: rgba(238, 238, 238, .91);
  background-size: 15px 15px;
  background-image: linear-gradient(to right, rgba(25, 25, 225, .65) 1px, transparent 1px),
                    linear-gradient(to bottom, rgba(25, 25, 225, .65) 1px, transparent 1px);
}

svg.railroad path {
  stroke-width: 3px;
  stroke: black;
  fill: transparent;
}

svg.railroad .debug {
  stroke-width: 1px;
  stroke: red;
}

svg.railroad text {
  font: 14px monospace;
  text-anchor: middle;
}

svg.railroad .nonterminal text {
  font-weight: bold;
}

svg.railroad text.comment {
  font: italic 12px monospace;
}

svg.railroad rect {
  stroke-width: 3px;
  stroke: black;
  fill:rgba(0, 0, 90, 0%);
}

svg.railroad .terminal rect {
  fill: aquamarine;  
}

svg.railroad .nonterminal rect {
  fill: orange;  
}

svg.railroad g.labeledbox &gt; rect {
  border-radius: 25px;
  border: 2px solid #73AD21;
  stroke-width: 1.5px;
  stroke: grey;
  stroke-dasharray: 5px;
  fill:rgba(150, 150, 150, 25%);
}

</style>
<g class="sequence">
<path d=" M 10 21 a 5 5 0 0 1 5 -5 a 5 5 0 0 1 5 5 a 5 5 0 0 1 -5 5 a 5 5 0 0 1 -5 -5 m 10 0 h 5"/>
<g class="choice">
<path d=" M 35 21 h 24 m 626 0 h 24"/>
<g class="sequence">
<g class="terminal">
<rect height="22" rx="10" ry="10" width="92" x="59" y="10"/>
<text x="105" y="26">
&quot;connect&quot;</text>
</g>
<g class="terminal">
<rect height="22" rx="10" ry="10" width="44" x="161" y="10"/>
<text x="183" y="26">
&quot;/&quot;</text>
</g>
<g class="nonterminal">
<rect height="22" width="188" x="215" y="10"/>
<text x="309" y="26">
ConnectFromConnector</text>
</g>
<g class="terminal">
<rect height="22" rx="10" ry="10" width="52" x="413" y="10"/>
<text x="439" y="26">
&quot;to&quot;</text>
</g>
<g class="terminal">
<rect height="22" rx="10" ry="10" width="44" x="475" y="10"/>
<text x="497" y="26">
&quot;/&quot;</text>
</g>
<g class="nonterminal">
<rect height="22" width="156" x="529" y="10"/>
<text x="607" y="26">
ConnectToPipeline</text>
</g>
<path d=" M 151 21 h 10"/>
<path d=" M 205 21 h 10"/>
<path d=" M 403 21 h 10"/>
<path d=" M 465 21 h 10"/>
<path d=" M 519 21 h 10"/>
</g>
<path d=" M 35 21 a 12 12 0 0 1 12 12 v 9 m 650 0 v -9 a 12 12 0 0 1 12 -12"/>
<path d=" M 47 42 v 33 m 650 0 v -33"/>
<path d=" M 47 42 v 0 a 12 12 0 0 0 12 12 m 618 0 h 8 a 12 12 0 0 0 12 -12 v 0"/>
<g class="sequence">
<g class="terminal">
<rect height="22" rx="10" ry="10" width="92" x="59" y="43"/>
<text x="105" y="59">
&quot;connect&quot;</text>
</g>
<g class="terminal">
<rect height="22" rx="10" ry="10" width="44" x="161" y="43"/>
<text x="183" y="59">
&quot;/&quot;</text>
</g>
<g class="nonterminal">
<rect height="22" width="172" x="215" y="43"/>
<text x="301" y="59">
ConnectFromPipeline</text>
</g>
<g class="terminal">
<rect height="22" rx="10" ry="10" width="52" x="397" y="43"/>
<text x="423" y="59">
&quot;to&quot;</text>
</g>
<g class="terminal">
<rect height="22" rx="10" ry="10" width="44" x="459" y="43"/>
<text x="481" y="59">
&quot;/&quot;</text>
</g>
<g class="nonterminal">
<rect height="22" width="164" x="513" y="43"/>
<text x="595" y="59">
ConnectToConnector</text>
</g>
<path d=" M 151 54 h 10"/>
<path d=" M 205 54 h 10"/>
<path d=" M 387 54 h 10"/>
<path d=" M 449 54 h 10"/>
<path d=" M 503 54 h 10"/>
</g>
<path d=" M 47 75 v 0 a 12 12 0 0 0 12 12 m 610 0 h 16 a 12 12 0 0 0 12 -12 v 0"/>
<g class="sequence">
<g class="terminal">
<rect height="22" rx="10" ry="10" width="92" x="59" y="76"/>
<text x="105" y="92">
&quot;connect&quot;</text>
</g>
<g class="terminal">
<rect height="22" rx="10" ry="10" width="44" x="161" y="76"/>
<text x="183" y="92">
&quot;/&quot;</text>
</g>
<g class="nonterminal">
<rect height="22" width="172" x="215" y="76"/>
<text x="301" y="92">
ConnectFromPipeline</text>
</g>
<g class="terminal">
<rect height="22" rx="10" ry="10" width="52" x="397" y="76"/>
<text x="423" y="92">
&quot;to&quot;</text>
</g>
<g class="terminal">
<rect height="22" rx="10" ry="10" width="44" x="459" y="76"/>
<text x="481" y="92">
&quot;/&quot;</text>
</g>
<g class="nonterminal">
<rect height="22" width="156" x="513" y="76"/>
<text x="591" y="92">
ConnectToPipeline</text>
</g>
<path d=" M 151 87 h 10"/>
<path d=" M 205 87 h 10"/>
<path d=" M 387 87 h 10"/>
<path d=" M 449 87 h 10"/>
<path d=" M 503 87 h 10"/>
</g>
</g>
<path d=" M 719 21 h 20 m -10 -10 v 20 m 10 -20 v 20"/>
<path d=" M 25 21 h 10"/>
<path d=" M 709 21 h 10"/>
</g>
</svg>
