<svg class="railroad" viewBox="0 0 537 141" xmlns="http://www.w3.org/2000/svg" xmlns:xlink="http://www.w3.org/1999/xlink">
<style type="text/css">

svg.railroad {
  background-color: rgba(238, 238, 238, .91);
  background-size: 15px 15px;
  background-image: linear-gradient(to right, rgba(25, 25, 225, .65) 1px, transparent 1px),
                    linear-gradient(to bottom, rgba(25, 25, 225, .65) 1px, transparent 1px);
}

svg.railroad path {
  stroke-width: 3px;
  stroke: black;
  fill: transparent;
}

svg.railroad .debug {
  stroke-width: 1px;
  stroke: red;
}

svg.railroad text {
  font: 14px monospace;
  text-anchor: middle;
}

svg.railroad .nonterminal text {
  font-weight: bold;
}

svg.railroad text.comment {
  font: italic 12px monospace;
}

svg.railroad rect {
  stroke-width: 3px;
  stroke: black;
  fill:rgba(0, 0, 90, 0%);
}

svg.railroad .terminal rect {
  fill: aquamarine;  
}

svg.railroad .nonterminal rect {
  fill: orange;  
}

svg.railroad g.labeledbox &gt; rect {
  border-radius: 25px;
  border: 2px solid #73AD21;
  stroke-width: 1.5px;
  stroke: grey;
  stroke-dasharray: 5px;
  fill:rgba(150, 150, 150, 25%);
}

</style>
<g class="sequence">
<path d=" M 10 21 a 5 5 0 0 1 5 -5 a 5 5 0 0 1 5 5 a 5 5 0 0 1 -5 5 a 5 5 0 0 1 -5 -5 m 10 0 h 5"/>
<g class="choice">
<path d=" M 35 21 h 24 m 414 0 h 24"/>
<g class="sequence">
<g class="terminal">
<rect height="22" rx="10" ry="10" width="68" x="59" y="10"/>
<text x="93" y="26">
&quot;emit&quot;</text>
</g>
<g class="nonterminal">
<rect height="22" width="140" x="137" y="10"/>
<text x="207" y="26">
ComplexExprImut</text>
</g>
<g class="terminal">
<rect height="22" rx="10" ry="10" width="52" x="287" y="10"/>
<text x="313" y="26">
&quot;=&gt;&quot;</text>
</g>
<g class="nonterminal">
<rect height="22" width="124" x="349" y="10"/>
<text x="411" y="26">
StringLiteral</text>
</g>
<path d=" M 127 21 h 10"/>
<path d=" M 277 21 h 10"/>
<path d=" M 339 21 h 10"/>
</g>
<path d=" M 35 21 a 12 12 0 0 1 12 12 v 9 m 438 0 v -9 a 12 12 0 0 1 12 -12"/>
<path d=" M 47 42 v 33 m 438 0 v -33"/>
<path d=" M 47 75 v 33 m 438 0 v -33"/>
<path d=" M 47 42 v 0 a 12 12 0 0 0 12 12 m 218 0 h 196 m -95 0 l -5 -5 m 0 10 l 5 -5 m 95 0 a 12 12 0 0 0 12 -12 v 0"/>
<g class="sequence">
<g class="terminal">
<rect height="22" rx="10" ry="10" width="68" x="59" y="43"/>
<text x="93" y="59">
&quot;emit&quot;</text>
</g>
<g class="nonterminal">
<rect height="22" width="140" x="137" y="43"/>
<text x="207" y="59">
ComplexExprImut</text>
</g>
<path d=" M 127 54 h 10"/>
</g>
<path d=" M 47 75 v 0 a 12 12 0 0 0 12 12 m 264 0 h 150 m -72 0 l -5 -5 m 0 10 l 5 -5 m 72 0 a 12 12 0 0 0 12 -12 v 0"/>
<g class="sequence">
<g class="terminal">
<rect height="22" rx="10" ry="10" width="68" x="59" y="76"/>
<text x="93" y="92">
&quot;emit&quot;</text>
</g>
<g class="terminal">
<rect height="22" rx="10" ry="10" width="52" x="137" y="76"/>
<text x="163" y="92">
&quot;=&gt;&quot;</text>
</g>
<g class="nonterminal">
<rect height="22" width="124" x="199" y="76"/>
<text x="261" y="92">
StringLiteral</text>
</g>
<path d=" M 127 87 h 10"/>
<path d=" M 189 87 h 10"/>
</g>
<path d=" M 47 108 v 0 a 12 12 0 0 0 12 12 m 68 0 h 346 m -170 0 l -5 -5 m 0 10 l 5 -5 m 170 0 a 12 12 0 0 0 12 -12 v 0"/>
<g class="sequence">
<g class="terminal">
<rect height="22" rx="10" ry="10" width="68" x="59" y="109"/>
<text x="93" y="125">
&quot;emit&quot;</text>
</g>
</g>
</g>
<path d=" M 507 21 h 20 m -10 -10 v 20 m 10 -20 v 20"/>
<path d=" M 25 21 h 10"/>
<path d=" M 497 21 h 10"/>
</g>
</svg>
