<svg class="railroad" viewBox="0 0 1189 42" xmlns="http://www.w3.org/2000/svg" xmlns:xlink="http://www.w3.org/1999/xlink">
<style type="text/css">

svg.railroad {
  background-color: rgba(238, 238, 238, .91);
  background-size: 15px 15px;
  background-image: linear-gradient(to right, rgba(25, 25, 225, .65) 1px, transparent 1px),
                    linear-gradient(to bottom, rgba(25, 25, 225, .65) 1px, transparent 1px);
}

svg.railroad path {
  stroke-width: 3px;
  stroke: black;
  fill: transparent;
}

svg.railroad .debug {
  stroke-width: 1px;
  stroke: red;
}

svg.railroad text {
  font: 14px monospace;
  text-anchor: middle;
}

svg.railroad .nonterminal text {
  font-weight: bold;
}

svg.railroad text.comment {
  font: italic 12px monospace;
}

svg.railroad rect {
  stroke-width: 3px;
  stroke: black;
  fill:rgba(0, 0, 90, 0%);
}

svg.railroad .terminal rect {
  fill: aquamarine;  
}

svg.railroad .nonterminal rect {
  fill: orange;  
}

svg.railroad g.labeledbox &gt; rect {
  border-radius: 25px;
  border: 2px solid #73AD21;
  stroke-width: 1.5px;
  stroke: grey;
  stroke-dasharray: 5px;
  fill:rgba(150, 150, 150, 25%);
}

</style>
<g class="sequence">
<path d=" M 10 21 a 5 5 0 0 1 5 -5 a 5 5 0 0 1 5 5 a 5 5 0 0 1 -5 5 a 5 5 0 0 1 -5 -5 m 10 0 h 5"/>
<g class="sequence">
<g class="sequence">
<g class="terminal">
<rect height="22" rx="10" ry="10" width="84" x="35" y="10"/>
<text x="77" y="26">
&quot;select&quot;</text>
</g>
<g class="nonterminal">
<rect height="22" width="140" x="129" y="10"/>
<text x="199" y="26">
ComplexExprImut</text>
</g>
<g class="terminal">
<rect height="22" rx="10" ry="10" width="68" x="279" y="10"/>
<text x="313" y="26">
&quot;from&quot;</text>
</g>
<g class="nonterminal">
<rect height="22" width="100" x="357" y="10"/>
<text x="407" y="26">
StreamPort</text>
</g>
<g class="nonterminal">
<rect height="22" width="116" x="467" y="10"/>
<text x="525" y="26">
WindowClause</text>
</g>
<g class="nonterminal">
<rect height="22" width="108" x="593" y="10"/>
<text x="647" y="26">
WhereClause</text>
</g>
<g class="nonterminal">
<rect height="22" width="124" x="711" y="10"/>
<text x="773" y="26">
GroupByClause</text>
</g>
<g class="terminal">
<rect height="22" rx="10" ry="10" width="68" x="845" y="10"/>
<text x="879" y="26">
&quot;into&quot;</text>
</g>
<g class="nonterminal">
<rect height="22" width="100" x="923" y="10"/>
<text x="973" y="26">
StreamPort</text>
</g>
<g class="nonterminal">
<rect height="22" width="116" x="1033" y="10"/>
<text x="1091" y="26">
HavingClause</text>
</g>
<path d=" M 119 21 h 10"/>
<path d=" M 269 21 h 10"/>
<path d=" M 347 21 h 10"/>
<path d=" M 457 21 h 10"/>
<path d=" M 583 21 h 10"/>
<path d=" M 701 21 h 10"/>
<path d=" M 835 21 h 10"/>
<path d=" M 913 21 h 10"/>
<path d=" M 1023 21 h 10"/>
</g>
</g>
<path d=" M 1159 21 h 20 m -10 -10 v 20 m 10 -20 v 20"/>
<path d=" M 25 21 h 10"/>
<path d=" M 1149 21 h 10"/>
</g>
</svg>
