<svg class="railroad" viewBox="0 0 237 87" xmlns="http://www.w3.org/2000/svg" xmlns:xlink="http://www.w3.org/1999/xlink">
<style type="text/css">

svg.railroad {
  background-color: rgba(238, 238, 238, .91);
  background-size: 15px 15px;
  background-image: linear-gradient(to right, rgba(25, 25, 225, .65) 1px, transparent 1px),
                    linear-gradient(to bottom, rgba(25, 25, 225, .65) 1px, transparent 1px);
}

svg.railroad path {
  stroke-width: 3px;
  stroke: black;
  fill: transparent;
}

svg.railroad .debug {
  stroke-width: 1px;
  stroke: red;
}

svg.railroad text {
  font: 14px monospace;
  text-anchor: middle;
}

svg.railroad .nonterminal text {
  font-weight: bold;
}

svg.railroad text.comment {
  font: italic 12px monospace;
}

svg.railroad rect {
  stroke-width: 3px;
  stroke: black;
  fill:rgba(0, 0, 90, 0%);
}

svg.railroad .terminal rect {
  fill: aquamarine;  
}

svg.railroad .nonterminal rect {
  fill: orange;  
}

svg.railroad g.labeledbox &gt; rect {
  border-radius: 25px;
  border: 2px solid #73AD21;
  stroke-width: 1.5px;
  stroke: grey;
  stroke-dasharray: 5px;
  fill:rgba(150, 150, 150, 25%);
}

</style>
<g class="sequence">
<path d=" M 10 21 a 5 5 0 0 1 5 -5 a 5 5 0 0 1 5 5 a 5 5 0 0 1 -5 5 a 5 5 0 0 1 -5 -5 m 10 0 h 5"/>
<g class="choice">
<path d=" M 35 21 h 24 m 104 0 h 34"/>
<g class="sequence">
<g class="nonterminal">
<rect height="22" width="28" x="59" y="10"/>
<text x="73" y="26">
T</text>
</g>
<g class="nonterminal">
<rect height="22" width="28" x="97" y="10"/>
<text x="111" y="26">
D</text>
</g>
<g class="nonterminal">
<rect height="22" width="28" x="135" y="10"/>
<text x="149" y="26">
L</text>
</g>
<path d=" M 87 21 h 10"/>
<path d=" M 125 21 h 10"/>
</g>
<path d=" M 35 21 a 12 12 0 0 1 12 12 v 9 m 138 0 v -9 a 12 12 0 0 1 12 -12"/>
<path d=" M 47 42 v 12 a 12 12 0 0 0 12 12 m 114 0 h 0 a 12 12 0 0 0 12 -12 v -12"/>
<g class="sequence">
<g class="nonterminal">
<rect height="22" width="28" x="59" y="55"/>
<text x="73" y="71">
T</text>
</g>
<g class="optional">
<path d=" M 97 66 h 24 m -24 0 a 12 12 0 0 0 12 -12 v 0 a 12 12 0 0 1 12 -12 h 28 a 12 12 0 0 1 12 12 v 0 a 12 12 0 0 0 12 12 h -24"/>
<g class="sequence">
<g class="nonterminal">
<rect height="22" width="28" x="121" y="55"/>
<text x="135" y="71">
D</text>
</g>
</g>
</g>
<path d=" M 87 66 h 10"/>
</g>
</g>
<path d=" M 207 21 h 20 m -10 -10 v 20 m 10 -20 v 20"/>
<path d=" M 25 21 h 10"/>
<path d=" M 197 21 h 10"/>
</g>
</svg>
