<svg class="railroad" viewBox="0 0 991 42" xmlns="http://www.w3.org/2000/svg" xmlns:xlink="http://www.w3.org/1999/xlink">
<style type="text/css">

svg.railroad {
  background-color: rgba(238, 238, 238, .91);
  background-size: 15px 15px;
  background-image: linear-gradient(to right, rgba(25, 25, 225, .65) 1px, transparent 1px),
                    linear-gradient(to bottom, rgba(25, 25, 225, .65) 1px, transparent 1px);
}

svg.railroad path {
  stroke-width: 3px;
  stroke: black;
  fill: transparent;
}

svg.railroad .debug {
  stroke-width: 1px;
  stroke: red;
}

svg.railroad text {
  font: 14px monospace;
  text-anchor: middle;
}

svg.railroad .nonterminal text {
  font-weight: bold;
}

svg.railroad text.comment {
  font: italic 12px monospace;
}

svg.railroad rect {
  stroke-width: 3px;
  stroke: black;
  fill:rgba(0, 0, 90, 0%);
}

svg.railroad .terminal rect {
  fill: aquamarine;  
}

svg.railroad .nonterminal rect {
  fill: orange;  
}

svg.railroad g.labeledbox &gt; rect {
  border-radius: 25px;
  border: 2px solid #73AD21;
  stroke-width: 1.5px;
  stroke: grey;
  stroke-dasharray: 5px;
  fill:rgba(150, 150, 150, 25%);
}

</style>
<g class="sequence">
<path d=" M 10 21 a 5 5 0 0 1 5 -5 a 5 5 0 0 1 5 5 a 5 5 0 0 1 -5 5 a 5 5 0 0 1 -5 -5 m 10 0 h 5"/>
<g class="sequence">
<g class="sequence">
<g class="nonterminal">
<rect height="22" width="100" x="35" y="10"/>
<text x="85" y="26">
DocComment</text>
</g>
<g class="terminal">
<rect height="22" rx="10" ry="10" width="84" x="145" y="10"/>
<text x="187" y="26">
&quot;define&quot;</text>
</g>
<g class="terminal">
<rect height="22" rx="10" ry="10" width="84" x="239" y="10"/>
<text x="281" y="26">
&quot;window&quot;</text>
</g>
<g class="nonterminal">
<rect height="22" width="60" x="333" y="10"/>
<text x="363" y="26">
Ident</text>
</g>
<g class="terminal">
<rect height="22" rx="10" ry="10" width="68" x="403" y="10"/>
<text x="437" y="26">
&quot;from&quot;</text>
</g>
<g class="nonterminal">
<rect height="22" width="100" x="481" y="10"/>
<text x="531" y="26">
WindowKind</text>
</g>
<g class="nonterminal">
<rect height="22" width="116" x="591" y="10"/>
<text x="649" y="26">
CreationWith</text>
</g>
<g class="nonterminal">
<rect height="22" width="164" x="717" y="10"/>
<text x="799" y="26">
EmbeddedScriptImut</text>
</g>
<g class="terminal">
<rect height="22" rx="10" ry="10" width="60" x="891" y="10"/>
<text x="921" y="26">
&quot;end&quot;</text>
</g>
<path d=" M 135 21 h 10"/>
<path d=" M 229 21 h 10"/>
<path d=" M 323 21 h 10"/>
<path d=" M 393 21 h 10"/>
<path d=" M 471 21 h 10"/>
<path d=" M 581 21 h 10"/>
<path d=" M 707 21 h 10"/>
<path d=" M 881 21 h 10"/>
</g>
</g>
<path d=" M 961 21 h 20 m -10 -10 v 20 m 10 -20 v 20"/>
<path d=" M 25 21 h 10"/>
<path d=" M 951 21 h 10"/>
</g>
</svg>
