<svg class="railroad" viewBox="0 0 1237 339" xmlns="http://www.w3.org/2000/svg" xmlns:xlink="http://www.w3.org/1999/xlink">
<style type="text/css">

svg.railroad {
  background-color: rgba(238, 238, 238, .91);
  background-size: 15px 15px;
  background-image: linear-gradient(to right, rgba(25, 25, 225, .65) 1px, transparent 1px),
                    linear-gradient(to bottom, rgba(25, 25, 225, .65) 1px, transparent 1px);
}

svg.railroad path {
  stroke-width: 3px;
  stroke: black;
  fill: transparent;
}

svg.railroad .debug {
  stroke-width: 1px;
  stroke: red;
}

svg.railroad text {
  font: 14px monospace;
  text-anchor: middle;
}

svg.railroad .nonterminal text {
  font-weight: bold;
}

svg.railroad text.comment {
  font: italic 12px monospace;
}

svg.railroad rect {
  stroke-width: 3px;
  stroke: black;
  fill:rgba(0, 0, 90, 0%);
}

svg.railroad .terminal rect {
  fill: aquamarine;  
}

svg.railroad .nonterminal rect {
  fill: orange;  
}

svg.railroad g.labeledbox &gt; rect {
  border-radius: 25px;
  border: 2px solid #73AD21;
  stroke-width: 1.5px;
  stroke: grey;
  stroke-dasharray: 5px;
  fill:rgba(150, 150, 150, 25%);
}

</style>
<g class="sequence">
<path d=" M 10 21 a 5 5 0 0 1 5 -5 a 5 5 0 0 1 5 5 a 5 5 0 0 1 -5 5 a 5 5 0 0 1 -5 -5 m 10 0 h 5"/>
<g class="choice">
<path d=" M 35 21 h 24 m 44 0 h 1094 m -544 0 l -5 -5 m 0 10 l 5 -5 m 544 0"/>
<g class="sequence">
<g class="nonterminal">
<rect height="22" width="44" x="59" y="10"/>
<text x="81" y="26">
Use</text>
</g>
</g>
<path d=" M 35 21 a 12 12 0 0 1 12 12 v 9 m 1138 0 v -9 a 12 12 0 0 1 12 -12"/>
<path d=" M 47 42 v 33 m 1138 0 v -33"/>
<path d=" M 47 75 v 33 m 1138 0 v -33"/>
<path d=" M 47 108 v 33 m 1138 0 v -33"/>
<path d=" M 47 141 v 33 m 1138 0 v -33"/>
<path d=" M 47 174 v 33 m 1138 0 v -33"/>
<path d=" M 47 207 v 33 m 1138 0 v -33"/>
<path d=" M 47 240 v 33 m 1138 0 v -33"/>
<path d=" M 47 273 v 33 m 1138 0 v -33"/>
<path d=" M 47 42 v 0 a 12 12 0 0 0 12 12 m 116 0 h 998 m -496 0 l -5 -5 m 0 10 l 5 -5 m 496 0 a 12 12 0 0 0 12 -12 v 0"/>
<g class="sequence">
<g class="nonterminal">
<rect height="22" width="116" x="59" y="43"/>
<text x="117" y="59">
DefineWindow</text>
</g>
</g>
<path d=" M 47 75 v 0 a 12 12 0 0 0 12 12 m 132 0 h 982 m -488 0 l -5 -5 m 0 10 l 5 -5 m 488 0 a 12 12 0 0 0 12 -12 v 0"/>
<g class="sequence">
<g class="nonterminal">
<rect height="22" width="132" x="59" y="76"/>
<text x="125" y="92">
DefineOperator</text>
</g>
</g>
<path d=" M 47 108 v 0 a 12 12 0 0 0 12 12 m 116 0 h 998 m -496 0 l -5 -5 m 0 10 l 5 -5 m 496 0 a 12 12 0 0 0 12 -12 v 0"/>
<g class="sequence">
<g class="nonterminal">
<rect height="22" width="116" x="59" y="109"/>
<text x="117" y="125">
DefineScript</text>
</g>
</g>
<path d=" M 47 141 v 0 a 12 12 0 0 0 12 12 m 132 0 h 982 m -488 0 l -5 -5 m 0 10 l 5 -5 m 488 0 a 12 12 0 0 0 12 -12 v 0"/>
<g class="sequence">
<g class="nonterminal">
<rect height="22" width="132" x="59" y="142"/>
<text x="125" y="158">
DefinePipeline</text>
</g>
</g>
<path d=" M 47 174 v 0 a 12 12 0 0 0 12 12 m 132 0 h 982 m -488 0 l -5 -5 m 0 10 l 5 -5 m 488 0 a 12 12 0 0 0 12 -12 v 0"/>
<g class="sequence">
<g class="nonterminal">
<rect height="22" width="132" x="59" y="175"/>
<text x="125" y="191">
CreateOperator</text>
</g>
</g>
<path d=" M 47 207 v 0 a 12 12 0 0 0 12 12 m 116 0 h 998 m -496 0 l -5 -5 m 0 10 l 5 -5 m 496 0 a 12 12 0 0 0 12 -12 v 0"/>
<g class="sequence">
<g class="nonterminal">
<rect height="22" width="116" x="59" y="208"/>
<text x="117" y="224">
CreateScript</text>
</g>
</g>
<path d=" M 47 240 v 0 a 12 12 0 0 0 12 12 m 132 0 h 982 m -488 0 l -5 -5 m 0 10 l 5 -5 m 488 0 a 12 12 0 0 0 12 -12 v 0"/>
<g class="sequence">
<g class="nonterminal">
<rect height="22" width="132" x="59" y="241"/>
<text x="125" y="257">
CreatePipeline</text>
</g>
</g>
<path d=" M 47 273 v 0 a 12 12 0 0 0 12 12 m 248 0 h 866 m -430 0 l -5 -5 m 0 10 l 5 -5 m 430 0 a 12 12 0 0 0 12 -12 v 0"/>
<g class="sequence">
<g class="terminal">
<rect height="22" rx="10" ry="10" width="84" x="59" y="274"/>
<text x="101" y="290">
&quot;create&quot;</text>
</g>
<g class="terminal">
<rect height="22" rx="10" ry="10" width="84" x="153" y="274"/>
<text x="195" y="290">
&quot;stream&quot;</text>
</g>
<g class="nonterminal">
<rect height="22" width="60" x="247" y="274"/>
<text x="277" y="290">
Ident</text>
</g>
<path d=" M 143 285 h 10"/>
<path d=" M 237 285 h 10"/>
</g>
<path d=" M 47 306 v 0 a 12 12 0 0 0 12 12 m 1114 0 h 0 a 12 12 0 0 0 12 -12 v 0"/>
<g class="sequence">
<g class="terminal">
<rect height="22" rx="10" ry="10" width="84" x="59" y="307"/>
<text x="101" y="323">
&quot;select&quot;</text>
</g>
<g class="nonterminal">
<rect height="22" width="140" x="153" y="307"/>
<text x="223" y="323">
ComplexExprImut</text>
</g>
<g class="terminal">
<rect height="22" rx="10" ry="10" width="68" x="303" y="307"/>
<text x="337" y="323">
&quot;from&quot;</text>
</g>
<g class="nonterminal">
<rect height="22" width="100" x="381" y="307"/>
<text x="431" y="323">
StreamPort</text>
</g>
<g class="nonterminal">
<rect height="22" width="116" x="491" y="307"/>
<text x="549" y="323">
WindowClause</text>
</g>
<g class="nonterminal">
<rect height="22" width="108" x="617" y="307"/>
<text x="671" y="323">
WhereClause</text>
</g>
<g class="nonterminal">
<rect height="22" width="124" x="735" y="307"/>
<text x="797" y="323">
GroupByClause</text>
</g>
<g class="terminal">
<rect height="22" rx="10" ry="10" width="68" x="869" y="307"/>
<text x="903" y="323">
&quot;into&quot;</text>
</g>
<g class="nonterminal">
<rect height="22" width="100" x="947" y="307"/>
<text x="997" y="323">
StreamPort</text>
</g>
<g class="nonterminal">
<rect height="22" width="116" x="1057" y="307"/>
<text x="1115" y="323">
HavingClause</text>
</g>
<path d=" M 143 318 h 10"/>
<path d=" M 293 318 h 10"/>
<path d=" M 371 318 h 10"/>
<path d=" M 481 318 h 10"/>
<path d=" M 607 318 h 10"/>
<path d=" M 725 318 h 10"/>
<path d=" M 859 318 h 10"/>
<path d=" M 937 318 h 10"/>
<path d=" M 1047 318 h 10"/>
</g>
</g>
<path d=" M 1207 21 h 20 m -10 -10 v 20 m 10 -20 v 20"/>
<path d=" M 25 21 h 10"/>
<path d=" M 1197 21 h 10"/>
</g>
</svg>
