<svg class="railroad" viewBox="0 0 1117 55" xmlns="http://www.w3.org/2000/svg" xmlns:xlink="http://www.w3.org/1999/xlink">
<style type="text/css">

svg.railroad {
  background-color: rgba(238, 238, 238, .91);
  background-size: 15px 15px;
  background-image: linear-gradient(to right, rgba(25, 25, 225, .65) 1px, transparent 1px),
                    linear-gradient(to bottom, rgba(25, 25, 225, .65) 1px, transparent 1px);
}

svg.railroad path {
  stroke-width: 3px;
  stroke: black;
  fill: transparent;
}

svg.railroad .debug {
  stroke-width: 1px;
  stroke: red;
}

svg.railroad text {
  font: 14px monospace;
  text-anchor: middle;
}

svg.railroad .nonterminal text {
  font-weight: bold;
}

svg.railroad text.comment {
  font: italic 12px monospace;
}

svg.railroad rect {
  stroke-width: 3px;
  stroke: black;
  fill:rgba(0, 0, 90, 0%);
}

svg.railroad .terminal rect {
  fill: aquamarine;  
}

svg.railroad .nonterminal rect {
  fill: orange;  
}

svg.railroad g.labeledbox &gt; rect {
  border-radius: 25px;
  border: 2px solid #73AD21;
  stroke-width: 1.5px;
  stroke: grey;
  stroke-dasharray: 5px;
  fill:rgba(150, 150, 150, 25%);
}

</style>
<g class="sequence">
<path d=" M 10 34 a 5 5 0 0 1 5 -5 a 5 5 0 0 1 5 5 a 5 5 0 0 1 -5 5 a 5 5 0 0 1 -5 -5 m 10 0 h 5"/>
<g class="sequence">
<g class="sequence">
<g class="nonterminal">
<rect height="22" width="100" x="35" y="23"/>
<text x="85" y="39">
DocComment</text>
</g>
<g class="terminal">
<rect height="22" rx="10" ry="10" width="84" x="145" y="23"/>
<text x="187" y="39">
&quot;define&quot;</text>
</g>
<g class="terminal">
<rect height="22" rx="10" ry="10" width="76" x="239" y="23"/>
<text x="277" y="39">
&quot;query&quot;</text>
</g>
<g class="nonterminal">
<rect height="22" width="60" x="325" y="23"/>
<text x="355" y="39">
Ident</text>
</g>
<g class="optional">
<path d=" M 395 34 h 24 m -24 0 a 12 12 0 0 0 12 -12 v 0 a 12 12 0 0 1 12 -12 h 138 m -66 0 l -5 -5 m 0 10 l 5 -5 m 66 0 a 12 12 0 0 1 12 12 v 0 a 12 12 0 0 0 12 12 h -24"/>
<g class="sequence">
<g class="sequence">
<g class="terminal">
<rect height="22" rx="10" ry="10" width="68" x="419" y="23"/>
<text x="453" y="39">
&quot;from&quot;</text>
</g>
<g class="choice">
<path d=" M 497 34 h 0 m 60 0 h 0"/>
<g class="nonterminal">
<rect height="22" width="60" x="497" y="23"/>
<text x="527" y="39">
Ports</text>
</g>
</g>
<path d=" M 487 34 h 10"/>
</g>
</g>
</g>
<g class="optional">
<path d=" M 591 34 h 24 m -24 0 a 12 12 0 0 0 12 -12 v 0 a 12 12 0 0 1 12 -12 h 138 m -66 0 l -5 -5 m 0 10 l 5 -5 m 66 0 a 12 12 0 0 1 12 12 v 0 a 12 12 0 0 0 12 12 h -24"/>
<g class="sequence">
<g class="sequence">
<g class="terminal">
<rect height="22" rx="10" ry="10" width="68" x="615" y="23"/>
<text x="649" y="39">
&quot;into&quot;</text>
</g>
<g class="choice">
<path d=" M 693 34 h 0 m 60 0 h 0"/>
<g class="nonterminal">
<rect height="22" width="60" x="693" y="23"/>
<text x="723" y="39">
Ports</text>
</g>
</g>
<path d=" M 683 34 h 10"/>
</g>
</g>
</g>
<g class="optional">
<path d=" M 787 34 h 24 m -24 0 a 12 12 0 0 0 12 -12 v 0 a 12 12 0 0 1 12 -12 h 148 m -71 0 l -5 -5 m 0 10 l 5 -5 m 71 0 a 12 12 0 0 1 12 12 v 0 a 12 12 0 0 0 12 12 h -24"/>
<g class="sequence">
<g class="sequence">
<g class="choice">
<path d=" M 811 34 h 0 m 148 0 h 0"/>
<g class="nonterminal">
<rect height="22" width="148" x="811" y="23"/>
<text x="885" y="39">
ScriptWithClause</text>
</g>
</g>
</g>
</g>
</g>
<g class="nonterminal">
<rect height="22" width="84" x="993" y="23"/>
<text x="1035" y="39">
Subquery</text>
</g>
<path d=" M 135 34 h 10"/>
<path d=" M 229 34 h 10"/>
<path d=" M 315 34 h 10"/>
<path d=" M 385 34 h 10"/>
<path d=" M 581 34 h 10"/>
<path d=" M 777 34 h 10"/>
<path d=" M 983 34 h 10"/>
</g>
</g>
<path d=" M 1087 34 h 20 m -10 -10 v 20 m 10 -20 v 20"/>
<path d=" M 25 34 h 10"/>
<path d=" M 1077 34 h 10"/>
</g>
</svg>
