<svg class="railroad" viewBox="0 0 463 273" xmlns="http://www.w3.org/2000/svg" xmlns:xlink="http://www.w3.org/1999/xlink">
<style type="text/css">

svg.railroad {
  background-color: rgba(238, 238, 238, .91);
  background-size: 15px 15px;
  background-image: linear-gradient(to right, rgba(25, 25, 225, .65) 1px, transparent 1px),
                    linear-gradient(to bottom, rgba(25, 25, 225, .65) 1px, transparent 1px);
}

svg.railroad path {
  stroke-width: 3px;
  stroke: black;
  fill: transparent;
}

svg.railroad .debug {
  stroke-width: 1px;
  stroke: red;
}

svg.railroad text {
  font: 14px monospace;
  text-anchor: middle;
}

svg.railroad .nonterminal text {
  font-weight: bold;
}

svg.railroad text.comment {
  font: italic 12px monospace;
}

svg.railroad rect {
  stroke-width: 3px;
  stroke: black;
  fill:rgba(0, 0, 90, 0%);
}

svg.railroad .terminal rect {
  fill: aquamarine;  
}

svg.railroad .nonterminal rect {
  fill: orange;  
}

svg.railroad g.labeledbox &gt; rect {
  border-radius: 25px;
  border: 2px solid #73AD21;
  stroke-width: 1.5px;
  stroke: grey;
  stroke-dasharray: 5px;
  fill:rgba(150, 150, 150, 25%);
}

</style>
<g class="sequence">
<path d=" M 10 21 a 5 5 0 0 1 5 -5 a 5 5 0 0 1 5 5 a 5 5 0 0 1 -5 5 a 5 5 0 0 1 -5 -5 m 10 0 h 5"/>
<g class="choice">
<path d=" M 35 21 h 24 m 216 0 h 148 m -71 0 l -5 -5 m 0 10 l 5 -5 m 71 0"/>
<g class="sequence">
<g class="nonterminal">
<rect height="22" width="60" x="59" y="10"/>
<text x="89" y="26">
Ident</text>
</g>
<g class="terminal">
<rect height="22" rx="10" ry="10" width="52" x="129" y="10"/>
<text x="155" y="26">
&quot;~=&quot;</text>
</g>
<g class="nonterminal">
<rect height="22" width="84" x="191" y="10"/>
<text x="233" y="26">
TestExpr</text>
</g>
<path d=" M 119 21 h 10"/>
<path d=" M 181 21 h 10"/>
</g>
<path d=" M 35 21 a 12 12 0 0 1 12 12 v 9 m 364 0 v -9 a 12 12 0 0 1 12 -12"/>
<path d=" M 47 42 v 33 m 364 0 v -33"/>
<path d=" M 47 75 v 33 m 364 0 v -33"/>
<path d=" M 47 108 v 33 m 364 0 v -33"/>
<path d=" M 47 141 v 33 m 364 0 v -33"/>
<path d=" M 47 174 v 33 m 364 0 v -33"/>
<path d=" M 47 207 v 33 m 364 0 v -33"/>
<path d=" M 47 42 v 0 a 12 12 0 0 0 12 12 m 340 0 h 0 a 12 12 0 0 0 12 -12 v 0"/>
<g class="sequence">
<g class="nonterminal">
<rect height="22" width="60" x="59" y="43"/>
<text x="89" y="59">
Ident</text>
</g>
<g class="terminal">
<rect height="22" rx="10" ry="10" width="44" x="129" y="43"/>
<text x="151" y="59">
&quot;=&quot;</text>
</g>
<g class="nonterminal">
<rect height="22" width="60" x="183" y="43"/>
<text x="213" y="59">
Ident</text>
</g>
<g class="terminal">
<rect height="22" rx="10" ry="10" width="52" x="253" y="43"/>
<text x="279" y="59">
&quot;~=&quot;</text>
</g>
<g class="nonterminal">
<rect height="22" width="84" x="315" y="43"/>
<text x="357" y="59">
TestExpr</text>
</g>
<path d=" M 119 54 h 10"/>
<path d=" M 173 54 h 10"/>
<path d=" M 243 54 h 10"/>
<path d=" M 305 54 h 10"/>
</g>
<path d=" M 47 75 v 0 a 12 12 0 0 0 12 12 m 256 0 h 84 m -39 0 l -5 -5 m 0 10 l 5 -5 m 39 0 a 12 12 0 0 0 12 -12 v 0"/>
<g class="sequence">
<g class="nonterminal">
<rect height="22" width="60" x="59" y="76"/>
<text x="89" y="92">
Ident</text>
</g>
<g class="terminal">
<rect height="22" rx="10" ry="10" width="52" x="129" y="76"/>
<text x="155" y="92">
&quot;~=&quot;</text>
</g>
<g class="nonterminal">
<rect height="22" width="124" x="191" y="76"/>
<text x="253" y="92">
RecordPattern</text>
</g>
<path d=" M 119 87 h 10"/>
<path d=" M 181 87 h 10"/>
</g>
<path d=" M 47 108 v 0 a 12 12 0 0 0 12 12 m 248 0 h 92 m -43 0 l -5 -5 m 0 10 l 5 -5 m 43 0 a 12 12 0 0 0 12 -12 v 0"/>
<g class="sequence">
<g class="nonterminal">
<rect height="22" width="60" x="59" y="109"/>
<text x="89" y="125">
Ident</text>
</g>
<g class="terminal">
<rect height="22" rx="10" ry="10" width="52" x="129" y="109"/>
<text x="155" y="125">
&quot;~=&quot;</text>
</g>
<g class="nonterminal">
<rect height="22" width="116" x="191" y="109"/>
<text x="249" y="125">
ArrayPattern</text>
</g>
<path d=" M 119 120 h 10"/>
<path d=" M 181 120 h 10"/>
</g>
<path d=" M 47 141 v 0 a 12 12 0 0 0 12 12 m 248 0 h 92 m -43 0 l -5 -5 m 0 10 l 5 -5 m 43 0 a 12 12 0 0 0 12 -12 v 0"/>
<g class="sequence">
<g class="nonterminal">
<rect height="22" width="60" x="59" y="142"/>
<text x="89" y="158">
Ident</text>
</g>
<g class="terminal">
<rect height="22" rx="10" ry="10" width="52" x="129" y="142"/>
<text x="155" y="158">
&quot;~=&quot;</text>
</g>
<g class="nonterminal">
<rect height="22" width="116" x="191" y="142"/>
<text x="249" y="158">
TuplePattern</text>
</g>
<path d=" M 119 153 h 10"/>
<path d=" M 181 153 h 10"/>
</g>
<path d=" M 47 174 v 0 a 12 12 0 0 0 12 12 m 162 0 h 178 m -86 0 l -5 -5 m 0 10 l 5 -5 m 86 0 a 12 12 0 0 0 12 -12 v 0"/>
<g class="sequence">
<g class="terminal">
<rect height="22" rx="10" ry="10" width="92" x="59" y="175"/>
<text x="105" y="191">
&quot;present&quot;</text>
</g>
<g class="nonterminal">
<rect height="22" width="60" x="161" y="175"/>
<text x="191" y="191">
Ident</text>
</g>
<path d=" M 151 186 h 10"/>
</g>
<path d=" M 47 207 v 0 a 12 12 0 0 0 12 12 m 154 0 h 186 m -90 0 l -5 -5 m 0 10 l 5 -5 m 90 0 a 12 12 0 0 0 12 -12 v 0"/>
<g class="sequence">
<g class="terminal">
<rect height="22" rx="10" ry="10" width="84" x="59" y="208"/>
<text x="101" y="224">
&quot;absent&quot;</text>
</g>
<g class="nonterminal">
<rect height="22" width="60" x="153" y="208"/>
<text x="183" y="224">
Ident</text>
</g>
<path d=" M 143 219 h 10"/>
</g>
<path d=" M 47 240 v 0 a 12 12 0 0 0 12 12 m 304 0 h 36 a 12 12 0 0 0 12 -12 v 0"/>
<g class="sequence">
<g class="nonterminal">
<rect height="22" width="60" x="59" y="241"/>
<text x="89" y="257">
Ident</text>
</g>
<g class="nonterminal">
<rect height="22" width="84" x="129" y="241"/>
<text x="171" y="257">
BinCmpEq</text>
</g>
<g class="nonterminal">
<rect height="22" width="140" x="223" y="241"/>
<text x="293" y="257">
ComplexExprImut</text>
</g>
<path d=" M 119 252 h 10"/>
<path d=" M 213 252 h 10"/>
</g>
</g>
<path d=" M 433 21 h 20 m -10 -10 v 20 m 10 -20 v 20"/>
<path d=" M 25 21 h 10"/>
<path d=" M 423 21 h 10"/>
</g>
</svg>
