<svg class="railroad" viewBox="0 0 443 119" xmlns="http://www.w3.org/2000/svg" xmlns:xlink="http://www.w3.org/1999/xlink">
<style type="text/css">

svg.railroad {
  background-color: rgba(238, 238, 238, .91);
  background-size: 15px 15px;
  background-image: linear-gradient(to right, rgba(25, 25, 225, .65) 1px, transparent 1px),
                    linear-gradient(to bottom, rgba(25, 25, 225, .65) 1px, transparent 1px);
}

svg.railroad path {
  stroke-width: 3px;
  stroke: black;
  fill: transparent;
}

svg.railroad .debug {
  stroke-width: 1px;
  stroke: red;
}

svg.railroad text {
  font: 14px monospace;
  text-anchor: middle;
}

svg.railroad .nonterminal text {
  font-weight: bold;
}

svg.railroad text.comment {
  font: italic 12px monospace;
}

svg.railroad rect {
  stroke-width: 3px;
  stroke: black;
  fill:rgba(0, 0, 90, 0%);
}

svg.railroad .terminal rect {
  fill: aquamarine;  
}

svg.railroad .nonterminal rect {
  fill: orange;  
}

svg.railroad g.labeledbox &gt; rect {
  border-radius: 25px;
  border: 2px solid #73AD21;
  stroke-width: 1.5px;
  stroke: grey;
  stroke-dasharray: 5px;
  fill:rgba(150, 150, 150, 25%);
}

</style>
<g class="sequence">
<path d=" M 10 57 a 5 5 0 0 1 5 -5 a 5 5 0 0 1 5 5 a 5 5 0 0 1 -5 5 a 5 5 0 0 1 -5 -5 m 10 0 h 5"/>
<g class="choice">
<path d=" M 35 57 h 24 m 320 0 h 24"/>
<g class="sequence">
<g class="labeledbox">
<rect height="66" width="320" x="59" y="10"/>
<path d=" M 59 57 h 8 m 304 0 h 8"/>
<text class="comment" x="131" y="33">
Macro Rule: BinOp</text>
<g class="sequence">
<g class="sequence">
<g class="nonterminal">
<rect height="22" width="68" x="67" y="46"/>
<text x="101" y="62">
BinXor</text>
</g>
<g class="nonterminal">
<rect height="22" width="108" x="145" y="46"/>
<text x="199" y="62">
XorExprImut</text>
</g>
<g class="nonterminal">
<rect height="22" width="108" x="263" y="46"/>
<text x="317" y="62">
AndExprImut</text>
</g>
<path d=" M 135 57 h 10"/>
<path d=" M 253 57 h 10"/>
</g>
</g>
</g>
</g>
<path d=" M 35 57 a 12 12 0 0 1 12 12 v 17 m 344 0 v -17 a 12 12 0 0 1 12 -12"/>
<path d=" M 47 86 v 0 a 12 12 0 0 0 12 12 m 108 0 h 212 m -103 0 l -5 -5 m 0 10 l 5 -5 m 103 0 a 12 12 0 0 0 12 -12 v 0"/>
<g class="sequence">
<g class="nonterminal">
<rect height="22" width="108" x="59" y="87"/>
<text x="113" y="103">
AndExprImut</text>
</g>
</g>
</g>
<path d=" M 413 57 h 20 m -10 -10 v 20 m 10 -20 v 20"/>
<path d=" M 25 57 h 10"/>
<path d=" M 403 57 h 10"/>
</g>
</svg>
