<svg class="railroad" viewBox="0 0 1125 55" xmlns="http://www.w3.org/2000/svg" xmlns:xlink="http://www.w3.org/1999/xlink">
<style type="text/css">

svg.railroad {
  background-color: rgba(238, 238, 238, .91);
  background-size: 15px 15px;
  background-image: linear-gradient(to right, rgba(25, 25, 225, .65) 1px, transparent 1px),
                    linear-gradient(to bottom, rgba(25, 25, 225, .65) 1px, transparent 1px);
}

svg.railroad path {
  stroke-width: 3px;
  stroke: black;
  fill: transparent;
}

svg.railroad .debug {
  stroke-width: 1px;
  stroke: red;
}

svg.railroad text {
  font: 14px monospace;
  text-anchor: middle;
}

svg.railroad .nonterminal text {
  font-weight: bold;
}

svg.railroad text.comment {
  font: italic 12px monospace;
}

svg.railroad rect {
  stroke-width: 3px;
  stroke: black;
  fill:rgba(0, 0, 90, 0%);
}

svg.railroad .terminal rect {
  fill: aquamarine;  
}

svg.railroad .nonterminal rect {
  fill: orange;  
}

svg.railroad g.labeledbox &gt; rect {
  border-radius: 25px;
  border: 2px solid #73AD21;
  stroke-width: 1.5px;
  stroke: grey;
  stroke-dasharray: 5px;
  fill:rgba(150, 150, 150, 25%);
}

</style>
<g class="sequence">
<path d=" M 10 34 a 5 5 0 0 1 5 -5 a 5 5 0 0 1 5 5 a 5 5 0 0 1 -5 5 a 5 5 0 0 1 -5 -5 m 10 0 h 5"/>
<g class="sequence">
<g class="sequence">
<g class="optional">
<path d=" M 35 34 h 24 m -24 0 a 12 12 0 0 0 12 -12 v 0 a 12 12 0 0 1 12 -12 h 100 m -47 0 l -5 -5 m 0 10 l 5 -5 m 47 0 a 12 12 0 0 1 12 12 v 0 a 12 12 0 0 0 12 12 h -24"/>
<g class="sequence">
<g class="sequence">
<g class="nonterminal">
<rect height="22" width="100" x="59" y="23"/>
<text x="109" y="39">
DocComment</text>
</g>
</g>
</g>
</g>
<g class="terminal">
<rect height="22" rx="10" ry="10" width="84" x="193" y="23"/>
<text x="235" y="39">
&quot;define&quot;</text>
</g>
<g class="terminal">
<rect height="22" rx="10" ry="10" width="100" x="287" y="23"/>
<text x="337" y="39">
&quot;pipeline&quot;</text>
</g>
<g class="nonterminal">
<rect height="22" width="60" x="397" y="23"/>
<text x="427" y="39">
Ident</text>
</g>
<g class="optional">
<path d=" M 467 34 h 24 m -24 0 a 12 12 0 0 0 12 -12 v 0 a 12 12 0 0 1 12 -12 h 138 m -66 0 l -5 -5 m 0 10 l 5 -5 m 66 0 a 12 12 0 0 1 12 12 v 0 a 12 12 0 0 0 12 12 h -24"/>
<g class="sequence">
<g class="sequence">
<g class="terminal">
<rect height="22" rx="10" ry="10" width="68" x="491" y="23"/>
<text x="525" y="39">
&quot;from&quot;</text>
</g>
<g class="choice">
<path d=" M 569 34 h 0 m 60 0 h 0"/>
<g class="nonterminal">
<rect height="22" width="60" x="569" y="23"/>
<text x="599" y="39">
Ports</text>
</g>
</g>
<path d=" M 559 34 h 10"/>
</g>
</g>
</g>
<g class="optional">
<path d=" M 663 34 h 24 m -24 0 a 12 12 0 0 0 12 -12 v 0 a 12 12 0 0 1 12 -12 h 138 m -66 0 l -5 -5 m 0 10 l 5 -5 m 66 0 a 12 12 0 0 1 12 12 v 0 a 12 12 0 0 0 12 12 h -24"/>
<g class="sequence">
<g class="sequence">
<g class="terminal">
<rect height="22" rx="10" ry="10" width="68" x="687" y="23"/>
<text x="721" y="39">
&quot;into&quot;</text>
</g>
<g class="choice">
<path d=" M 765 34 h 0 m 60 0 h 0"/>
<g class="nonterminal">
<rect height="22" width="60" x="765" y="23"/>
<text x="795" y="39">
Ports</text>
</g>
</g>
<path d=" M 755 34 h 10"/>
</g>
</g>
</g>
<g class="nonterminal">
<rect height="22" width="132" x="859" y="23"/>
<text x="925" y="39">
DefinitionArgs</text>
</g>
<g class="nonterminal">
<rect height="22" width="84" x="1001" y="23"/>
<text x="1043" y="39">
Pipeline</text>
</g>
<path d=" M 183 34 h 10"/>
<path d=" M 277 34 h 10"/>
<path d=" M 387 34 h 10"/>
<path d=" M 457 34 h 10"/>
<path d=" M 653 34 h 10"/>
<path d=" M 849 34 h 10"/>
<path d=" M 991 34 h 10"/>
</g>
</g>
<path d=" M 1095 34 h 20 m -10 -10 v 20 m 10 -20 v 20"/>
<path d=" M 25 34 h 10"/>
<path d=" M 1085 34 h 10"/>
</g>
</svg>
