<svg class="railroad" viewBox="0 0 1381 55" xmlns="http://www.w3.org/2000/svg" xmlns:xlink="http://www.w3.org/1999/xlink">
<style type="text/css">

svg.railroad {
  background-color: rgba(238, 238, 238, .91);
  background-size: 15px 15px;
  background-image: linear-gradient(to right, rgba(25, 25, 225, .65) 1px, transparent 1px),
                    linear-gradient(to bottom, rgba(25, 25, 225, .65) 1px, transparent 1px);
}

svg.railroad path {
  stroke-width: 3px;
  stroke: black;
  fill: transparent;
}

svg.railroad .debug {
  stroke-width: 1px;
  stroke: red;
}

svg.railroad text {
  font: 14px monospace;
  text-anchor: middle;
}

svg.railroad .nonterminal text {
  font-weight: bold;
}

svg.railroad text.comment {
  font: italic 12px monospace;
}

svg.railroad rect {
  stroke-width: 3px;
  stroke: black;
  fill:rgba(0, 0, 90, 0%);
}

svg.railroad .terminal rect {
  fill: aquamarine;  
}

svg.railroad .nonterminal rect {
  fill: orange;  
}

svg.railroad g.labeledbox &gt; rect {
  border-radius: 25px;
  border: 2px solid #73AD21;
  stroke-width: 1.5px;
  stroke: grey;
  stroke-dasharray: 5px;
  fill:rgba(150, 150, 150, 25%);
}

</style>
<g class="sequence">
<path d=" M 10 34 a 5 5 0 0 1 5 -5 a 5 5 0 0 1 5 5 a 5 5 0 0 1 -5 5 a 5 5 0 0 1 -5 -5 m 10 0 h 5"/>
<g class="sequence">
<g class="sequence">
<g class="terminal">
<rect height="22" rx="10" ry="10" width="84" x="35" y="23"/>
<text x="77" y="39">
&quot;select&quot;</text>
</g>
<g class="nonterminal">
<rect height="22" width="140" x="129" y="23"/>
<text x="199" y="39">
ComplexExprImut</text>
</g>
<g class="terminal">
<rect height="22" rx="10" ry="10" width="68" x="279" y="23"/>
<text x="313" y="39">
&quot;from&quot;</text>
</g>
<g class="nonterminal">
<rect height="22" width="100" x="357" y="23"/>
<text x="407" y="39">
StreamPort</text>
</g>
<g class="optional">
<path d=" M 467 34 h 24 m -24 0 a 12 12 0 0 0 12 -12 v 0 a 12 12 0 0 1 12 -12 h 116 m -55 0 l -5 -5 m 0 10 l 5 -5 m 55 0 a 12 12 0 0 1 12 12 v 0 a 12 12 0 0 0 12 12 h -24"/>
<g class="sequence">
<g class="sequence">
<g class="nonterminal">
<rect height="22" width="116" x="491" y="23"/>
<text x="549" y="39">
WindowClause</text>
</g>
</g>
</g>
</g>
<g class="optional">
<path d=" M 641 34 h 24 m -24 0 a 12 12 0 0 0 12 -12 v 0 a 12 12 0 0 1 12 -12 h 108 m -51 0 l -5 -5 m 0 10 l 5 -5 m 51 0 a 12 12 0 0 1 12 12 v 0 a 12 12 0 0 0 12 12 h -24"/>
<g class="sequence">
<g class="sequence">
<g class="nonterminal">
<rect height="22" width="108" x="665" y="23"/>
<text x="719" y="39">
WhereClause</text>
</g>
</g>
</g>
</g>
<g class="optional">
<path d=" M 807 34 h 24 m -24 0 a 12 12 0 0 0 12 -12 v 0 a 12 12 0 0 1 12 -12 h 124 m -59 0 l -5 -5 m 0 10 l 5 -5 m 59 0 a 12 12 0 0 1 12 12 v 0 a 12 12 0 0 0 12 12 h -24"/>
<g class="sequence">
<g class="sequence">
<g class="nonterminal">
<rect height="22" width="124" x="831" y="23"/>
<text x="893" y="39">
GroupByClause</text>
</g>
</g>
</g>
</g>
<g class="terminal">
<rect height="22" rx="10" ry="10" width="68" x="989" y="23"/>
<text x="1023" y="39">
&quot;into&quot;</text>
</g>
<g class="nonterminal">
<rect height="22" width="100" x="1067" y="23"/>
<text x="1117" y="39">
StreamPort</text>
</g>
<g class="optional">
<path d=" M 1177 34 h 24 m -24 0 a 12 12 0 0 0 12 -12 v 0 a 12 12 0 0 1 12 -12 h 116 m -55 0 l -5 -5 m 0 10 l 5 -5 m 55 0 a 12 12 0 0 1 12 12 v 0 a 12 12 0 0 0 12 12 h -24"/>
<g class="sequence">
<g class="sequence">
<g class="nonterminal">
<rect height="22" width="116" x="1201" y="23"/>
<text x="1259" y="39">
HavingClause</text>
</g>
</g>
</g>
</g>
<path d=" M 119 34 h 10"/>
<path d=" M 269 34 h 10"/>
<path d=" M 347 34 h 10"/>
<path d=" M 457 34 h 10"/>
<path d=" M 631 34 h 10"/>
<path d=" M 797 34 h 10"/>
<path d=" M 979 34 h 10"/>
<path d=" M 1057 34 h 10"/>
<path d=" M 1167 34 h 10"/>
</g>
</g>
<path d=" M 1351 34 h 20 m -10 -10 v 20 m 10 -20 v 20"/>
<path d=" M 25 34 h 10"/>
<path d=" M 1341 34 h 10"/>
</g>
</svg>
